<?xml version="1.0" standalone="no"?>
<!DOCTYPE svg PUBLIC "-//W3C//DTD SVG 20010904//EN"
 "http://www.w3.org/TR/2001/REC-SVG-20010904/DTD/svg10.dtd">
<svg version="1.0" xmlns="http://www.w3.org/2000/svg"
 width="474.000000pt" height="474.000000pt" viewBox="0 0 474.000000 474.000000"
 preserveAspectRatio="xMidYMid meet">
<metadata>
Created by potrace 1.16, written by Peter Selinger 2001-2019
</metadata>
<g transform="translate(0.000000,474.000000) scale(0.100000,-0.100000)"
fill="#000000" stroke="none">
<path d="M2260 4730 c0 -5 -17 -10 -37 -10 -21 0 -94 -9 -163 -20 -311 -51
-582 -146 -862 -302 -172 -96 -478 -334 -462 -360 4 -6 3 -8 -3 -5 -13 8 -86
-67 -76 -78 5 -4 3 -5 -3 -2 -12 7 -48 -29 -126 -128 -71 -90 -188 -265 -188
-282 0 -7 -4 -13 -8 -13 -11 0 -122 -222 -160 -320 -73 -187 -125 -390 -144
-566 -7 -57 -16 -104 -20 -104 -4 0 -8 -126 -8 -280 0 -154 4 -280 8 -280 4 0
13 -47 20 -105 42 -377 197 -765 421 -1055 131 -170 341 -357 526 -469 283
-172 686 -301 1023 -327 45 -4 82 -11 82 -15 0 -5 119 -9 265 -9 170 0 265 4
265 10 0 6 16 10 35 10 59 0 225 28 325 55 137 37 305 107 303 125 -1 8 -35
119 -76 245 -51 157 -79 229 -88 228 -8 -1 -59 -17 -114 -36 -212 -74 -423
-103 -678 -94 -493 18 -861 143 -1188 403 -134 107 -291 310 -372 484 -207
444 -234 1048 -67 1525 68 194 203 432 329 579 27 33 47 64 44 70 -3 6 -3 8 2
4 4 -4 42 25 84 65 282 269 661 452 1056 509 130 19 490 16 640 -5 576 -80
966 -329 1177 -752 61 -122 107 -276 128 -435 17 -126 15 -406 -5 -525 -73
-454 -323 -746 -669 -781 -116 -12 -192 28 -221 117 -27 80 -16 248 33 519 23
124 50 279 62 345 12 66 50 283 86 483 35 200 64 372 64 382 0 19 -8 20 -178
20 l-178 0 -78 -81 c-58 -59 -83 -78 -95 -73 -9 4 -20 6 -24 5 -5 -1 -6 3 -3
8 7 11 -67 59 -161 105 -146 71 -361 87 -552 41 -476 -116 -898 -619 -1035
-1237 -101 -455 -37 -801 185 -1014 108 -102 238 -154 391 -154 262 0 481 105
694 334 46 50 108 123 137 163 28 39 57 72 63 72 8 1 13 -41 16 -122 5 -117 7
-127 41 -199 89 -185 258 -257 577 -245 80 3 181 13 225 22 374 78 726 318
939 640 118 178 212 410 244 599 9 56 20 103 24 104 12 6 10 462 -2 462 -5 0
-10 15 -10 34 0 41 -34 212 -62 316 -89 327 -321 678 -598 902 -316 257 -752
432 -1197 480 -62 7 -113 16 -113 20 0 4 -110 8 -245 8 -157 0 -245 -4 -245
-10z m331 -1690 c61 -11 186 -69 213 -98 16 -19 14 -36 -48 -374 -41 -225 -72
-370 -84 -394 -27 -53 -146 -211 -208 -276 -128 -135 -274 -218 -383 -218 -60
0 -148 31 -189 66 -93 79 -132 265 -102 479 73 515 435 883 801 815z"/>
</g>
</svg>
