<?xml version="1.0" standalone="no"?>
<!DOCTYPE svg PUBLIC "-//W3C//DTD SVG 20010904//EN"
 "http://www.w3.org/TR/2001/REC-SVG-20010904/DTD/svg10.dtd">
<svg version="1.0" xmlns="http://www.w3.org/2000/svg"
 width="500.000000pt" height="500.000000pt" viewBox="0 0 500.000000 500.000000"
 preserveAspectRatio="xMidYMid meet">
<metadata>
Created by potrace 1.16, written by Peter Selinger 2001-2019
</metadata>
<g transform="translate(0.000000,500.000000) scale(0.100000,-0.100000)"
fill="#000000" stroke="none">
<path d="M2688 3413 c-8 -10 -20 -33 -27 -52 -14 -41 -14 -44 -1 -36 6 3 10
-1 10 -10 0 -11 -5 -15 -14 -12 -17 7 -157 -61 -201 -97 -25 -20 -28 -26 -16
-40 9 -10 10 -16 2 -16 -6 0 -11 5 -11 11 0 7 -11 0 -25 -14 -43 -43 -113 -69
-211 -80 -50 -6 -98 -8 -107 -4 -23 9 -27 8 -26 0 0 -5 -9 -10 -21 -13 -22 -5
-22 -5 4 -33 26 -28 34 -43 17 -32 -5 3 -12 1 -16 -5 -4 -6 -12 -5 -21 5 -19
19 -41 21 -26 2 8 -10 6 -13 -8 -13 -11 0 -17 2 -15 5 8 7 -29 30 -38 24 -5
-3 -3 -9 4 -14 11 -7 10 -9 -3 -9 -20 0 -32 16 -18 25 20 12 10 26 -11 15 -12
-7 -18 -18 -15 -26 3 -8 -1 -17 -10 -21 -9 -3 -12 -8 -5 -12 5 -4 -10 -6 -35
-6 -24 0 -45 3 -45 8 -1 4 -2 13 -3 20 -1 17 -16 26 -33 20 -15 -6 -18 -53 -4
-53 5 0 16 -6 23 -12 43 -41 47 -42 73 -18 14 13 25 19 25 14 0 -5 -9 -15 -20
-22 -28 -17 -25 -25 20 -51 35 -19 45 -21 72 -12 43 15 47 13 19 -9 -21 -18
-21 -20 -5 -22 11 0 25 -1 31 -1 7 1 11 -3 8 -7 -12 -19 35 -16 52 3 15 17 16
20 2 14 -20 -7 -39 10 -32 29 3 9 -2 14 -13 14 -16 0 -17 2 -4 10 13 8 13 11
1 19 -10 7 -6 11 18 16 17 3 31 13 31 20 0 8 6 12 13 9 8 -3 18 5 23 17 9 20
17 22 77 20 62 -2 68 -1 76 21 12 32 7 37 -42 32 -36 -3 -38 -2 -12 5 70 20
95 10 72 -26 -12 -19 1 -16 30 7 14 11 21 20 14 20 -21 0 -11 15 18 28 16 7
39 22 52 33 16 14 31 18 48 14 21 -5 23 -4 12 8 -9 12 -7 16 16 22 21 5 24 8
12 16 -11 8 -8 9 11 7 26 -3 52 16 63 45 3 9 11 17 18 17 6 0 9 -7 5 -15 -3
-8 -1 -15 4 -15 6 0 10 7 10 15 0 8 7 15 16 15 16 0 46 24 39 32 -2 2 12 5 33
6 20 2 39 6 42 10 7 10 62 35 79 36 8 1 19 10 25 21 16 29 27 35 63 30 18 -2
33 0 33 5 0 15 -72 12 -100 -5 -27 -15 -90 -45 -96 -45 -11 0 -15 76 -5 92 14
23 -1 24 -21 1z"/>
<path d="M2867 3303 c-29 -12 -40 -23 -45 -47 -3 -17 -6 -34 -5 -37 1 -3 -5
-6 -13 -6 -8 0 -13 6 -10 14 9 23 -3 14 -17 -13 -12 -23 -15 -24 -26 -10 -11
13 -9 21 13 51 15 19 25 35 23 35 -14 0 -69 -34 -60 -37 7 -3 9 -11 6 -19 -4
-11 -8 -12 -13 -4 -5 8 -11 7 -23 -4 -8 -9 -27 -16 -41 -16 -15 0 -30 -8 -36
-20 -6 -11 -18 -20 -28 -20 -9 0 -28 -12 -41 -25 -13 -14 -30 -25 -38 -25 -8
0 -11 -4 -8 -10 3 -5 16 -10 28 -10 12 0 29 -6 38 -13 19 -15 32 -47 19 -47
-6 0 -10 5 -10 10 0 6 -11 8 -25 4 -18 -5 -25 -3 -23 7 2 7 -6 15 -17 17 -11
2 -23 9 -26 14 -4 6 -9 6 -12 1 -7 -11 3 -25 27 -39 28 -15 32 -34 7 -27 -31
8 -26 -6 6 -18 22 -8 24 -12 13 -19 -8 -5 -11 -12 -7 -16 10 -10 19 2 22 28 4
41 6 43 16 19 9 -23 10 -23 23 -5 8 10 17 16 21 13 11 -12 -7 -59 -22 -59 -8
0 -27 -6 -41 -14 -15 -8 -46 -19 -69 -25 -24 -7 -43 -16 -43 -22 0 -6 6 -7 16
-1 9 5 25 7 34 5 21 -6 90 22 90 36 0 6 6 11 13 11 8 0 42 18 76 40 34 22 67
40 73 40 24 0 -74 -80 -135 -110 -39 -19 -69 -41 -76 -56 -6 -13 -17 -24 -25
-24 -13 0 -31 -27 -28 -42 1 -3 -12 -9 -28 -13 -17 -4 -30 -11 -30 -16 0 -5
-4 -9 -10 -9 -5 0 -19 -9 -30 -20 l-20 -20 24 0 c14 0 28 5 31 10 4 7 12 7 25
0 25 -13 63 -13 55 0 -4 7 3 8 20 4 21 -5 26 -4 23 7 -3 10 -21 14 -57 13 -38
-1 -48 2 -36 9 9 5 25 7 36 4 10 -3 19 -1 19 4 0 5 8 9 18 9 16 1 16 1 0 14
-10 7 -18 18 -18 24 0 14 28 23 35 12 4 -6 0 -10 -7 -10 -10 0 -10 -2 1 -9 7
-5 11 -17 7 -27 -4 -13 1 -23 14 -32 12 -7 20 -8 20 -2 0 5 9 10 21 10 11 0
29 5 40 10 24 13 24 7 2 -16 -17 -17 -17 -18 0 -11 10 4 23 7 28 7 6 0 7 5 4
10 -3 6 4 10 17 10 13 0 19 4 13 8 -5 4 -12 16 -13 27 -2 11 -9 23 -15 27 -8
5 -6 8 6 8 9 0 17 -7 17 -15 0 -9 10 -15 26 -15 14 0 23 4 19 10 -3 6 -2 10 4
10 17 0 21 -18 5 -24 -12 -5 -13 -8 -2 -20 37 -39 52 51 23 138 -11 33 -13 51
-5 71 13 33 13 31 -5 49 -14 14 -13 17 14 31 17 8 36 15 44 15 7 0 28 11 47
25 18 14 35 23 38 21 10 -10 -23 -49 -52 -61 -18 -8 -38 -20 -44 -28 -21 -25
-24 -90 -8 -138 9 -24 16 -60 16 -81 l0 -36 38 18 c20 10 55 40 77 66 63 75
73 93 26 47 -24 -24 -47 -43 -52 -43 -5 0 -15 -13 -24 -30 -9 -16 -20 -30 -25
-30 -17 0 13 53 56 103 24 26 46 62 50 80 3 17 22 49 40 71 18 21 31 43 27 49
-3 6 -1 7 5 3 15 -9 25 11 24 47 -1 29 -36 77 -56 77 -7 0 -8 -3 -1 -8 11 -8
35 -48 35 -58 0 -4 -7 -1 -16 7 -24 20 -54 18 -70 -5 -16 -24 -19 -14 -4 17 7
13 -1 8 -20 -13 -17 -19 -28 -28 -25 -19 4 10 2 20 -4 24 -14 8 -14 55 -1 55
6 0 10 7 10 15 0 10 10 15 30 15 17 0 30 5 30 11 0 6 -7 9 -15 5 -8 -3 -15 -1
-15 4 0 13 -8 12 -53 -7z"/>
<path d="M2406 2863 c16 -12 12 -18 -9 -14 -5 1 -20 -8 -34 -19 -14 -11 -33
-20 -42 -20 -9 1 0 8 19 17 l35 16 -49 10 c-43 9 -51 7 -63 -9 -11 -15 -13
-15 -13 -2 0 21 -32 33 -45 16 -18 -24 -80 -63 -94 -60 -7 2 -25 0 -40 -3
l-26 -7 25 -10 c71 -28 129 -36 186 -22 30 7 66 20 79 28 13 9 29 16 35 16 5
0 28 17 49 38 l39 38 -35 0 c-31 0 -33 -1 -17 -13z"/>
<path d="M1976 2568 c-13 -59 -56 -381 -52 -385 13 -13 25 13 31 66 l7 59 38
4 c37 3 40 2 71 -52 18 -30 34 -57 35 -59 2 -1 8 0 14 4 7 4 1 25 -20 62 -16
31 -29 57 -27 58 1 0 21 13 45 28 55 35 82 80 82 135 0 86 -84 121 -164 67
l-36 -24 0 29 c0 35 -17 40 -24 8z m173 -15 c53 -43 24 -153 -51 -197 -36 -20
-38 -20 -67 -3 -16 9 -36 17 -43 17 -12 0 -13 10 -7 54 9 66 20 87 61 120 38
30 77 33 107 9z"/>
<path d="M2397 2531 c-37 -33 -73 -100 -116 -218 -39 -108 -44 -133 -28 -133
8 0 22 31 35 75 l22 75 66 0 67 0 -7 -42 c-4 -24 -9 -58 -13 -77 -4 -26 -3
-33 8 -29 18 6 37 104 45 238 6 92 5 108 -10 123 -23 23 -30 22 -69 -12z m53
-86 l0 -95 -65 0 -65 0 25 57 c14 31 31 64 37 72 26 34 52 61 60 61 4 0 8 -43
8 -95z"/>
<path d="M2926 2538 c-9 -45 -37 -341 -32 -345 15 -16 24 22 36 152 7 80 17
142 21 138 4 -4 33 -66 64 -138 31 -71 60 -134 65 -139 17 -17 29 38 42 187
10 111 11 147 2 147 -13 0 -20 -40 -30 -170 -4 -47 -9 -89 -12 -94 -2 -4 -32
56 -66 135 -34 78 -67 144 -73 146 -7 3 -14 -6 -17 -19z"/>
</g>
</svg>
