<?xml version="1.0" standalone="no"?>
<!DOCTYPE svg PUBLIC "-//W3C//DTD SVG 20010904//EN"
 "http://www.w3.org/TR/2001/REC-SVG-20010904/DTD/svg10.dtd">
<svg version="1.0" xmlns="http://www.w3.org/2000/svg"
 width="450.000000pt" height="454.000000pt" viewBox="0 0 450.000000 454.000000"
 preserveAspectRatio="xMidYMid meet">
<metadata>
Created by potrace 1.16, written by Peter Selinger 2001-2019
</metadata>
<g transform="translate(0.000000,454.000000) scale(0.100000,-0.100000)"
fill="#000000" stroke="none">
<path d="M2010 4520 c-121 -18 -146 -23 -275 -57 -63 -16 -159 -47 -210 -68
-16 -7 -55 -23 -85 -35 -80 -32 -233 -114 -326 -176 -128 -84 -230 -168 -355
-293 -338 -340 -534 -734 -616 -1236 -24 -148 -24 -479 0 -615 40 -223 85
-389 148 -536 39 -93 104 -223 118 -237 4 -4 -35 -133 -86 -285 -52 -152 -98
-290 -103 -307 -5 -16 -14 -46 -21 -65 -34 -97 -36 -104 -131 -387 -40 -117
-69 -215 -65 -219 4 -4 53 8 109 26 265 84 325 104 358 115 19 7 82 28 140 46
58 18 150 47 205 64 55 18 174 56 265 84 91 29 174 56 185 60 14 6 43 -3 104
-31 305 -144 597 -208 946 -208 400 0 732 85 1075 275 60 34 199 123 210 135
3 3 24 19 46 35 83 60 195 163 310 287 66 70 200 256 255 353 147 260 221 474
274 790 20 122 21 496 0 626 -28 180 -67 324 -139 515 -18 50 -76 171 -114
239 -153 277 -405 555 -670 739 -119 83 -388 226 -424 226 -8 0 -18 4 -23 8
-13 11 -142 55 -220 75 -33 9 -78 20 -100 26 -194 50 -554 64 -785 31z m670
-99 c587 -111 1069 -428 1393 -918 186 -281 294 -583 332 -928 45 -405 -28
-813 -210 -1170 -301 -591 -839 -1000 -1481 -1124 -349 -67 -735 -42 -1064 70
-114 39 -142 50 -246 99 -72 35 -113 49 -127 45 -35 -10 -428 -135 -472 -150
-22 -7 -139 -45 -260 -84 -121 -39 -260 -83 -310 -99 -50 -16 -93 -28 -96 -26
-4 2 42 147 101 321 59 175 144 427 188 559 l82 241 -68 134 c-258 508 -301
1082 -122 1629 89 272 261 558 463 769 330 345 729 558 1187 635 136 23 162
24 395 21 156 -3 237 -9 315 -24z"/>
<path d="M2145 4084 c-251 -36 -412 -83 -596 -174 -447 -220 -780 -621 -913
-1100 -46 -169 -58 -274 -54 -493 4 -168 9 -233 26 -312 50 -232 138 -443 258
-620 l41 -60 -104 -310 c-57 -170 -105 -316 -108 -322 -3 -9 5 -9 33 2 20 7
111 37 202 66 91 28 219 69 284 90 65 22 126 39 135 39 9 0 32 -11 51 -24 87
-59 308 -156 435 -192 184 -51 243 -58 480 -58 201 0 242 3 330 22 197 44 277
71 435 148 180 88 305 179 460 334 257 256 405 529 482 885 17 79 22 144 26
312 4 219 -8 324 -54 493 -133 479 -466 880 -913 1100 -241 119 -453 170 -731
175 -96 2 -188 1 -205 -1z m-344 -743 c14 -16 38 -61 53 -102 15 -41 34 -90
41 -109 16 -40 81 -215 102 -273 13 -36 12 -43 -10 -91 -14 -29 -57 -88 -101
-134 -42 -45 -76 -89 -76 -97 0 -25 37 -92 108 -195 114 -167 226 -279 387
-388 74 -50 254 -142 277 -142 25 0 86 58 175 164 42 50 83 95 91 100 33 19
99 -7 322 -127 41 -22 104 -55 140 -74 96 -52 104 -63 96 -148 -3 -38 -16 -99
-27 -135 -18 -55 -31 -75 -88 -130 -70 -67 -153 -116 -251 -146 -82 -26 -237
-24 -320 4 -159 52 -373 141 -485 201 -175 94 -401 290 -560 486 -96 119 -255
356 -307 458 -128 255 -140 476 -38 672 59 115 158 220 225 238 11 3 65 3 120
1 93 -5 102 -7 126 -33z"/>
</g>
</svg>
